<svg id="Layer_1" data-name="Layer 1" xmlns="http://www.w3.org/2000/svg" viewBox="0 0 216 216">
  <title>24x7-Support</title>
  <circle cx="107.33" cy="108" r="100" fill="#d2342a"/>
  <rect x="103.92" y="67.75" width="3.75" height="10.25" fill="#fff"/>
  <rect x="69.67" y="102" width="3.75" height="10.25" transform="translate(-35.58 178.67) rotate(-90)" fill="#fff"/>
  <path d="M72.67,144.75a50.54,50.54,0,1,1,84.91-37c0,.68,0,1.36-.05,2h4c0-.67.05-1.35.05-2A54.55,54.55,0,1,0,72.67,150Z" fill="#fff"/>
  <g>
    <path d="M81.3,157.61a25.41,25.41,0,0,1,.47-5,20.24,20.24,0,0,1,1.42-4.43,24.45,24.45,0,0,1,2.4-4.12A40.77,40.77,0,0,1,88.95,140L91.79,137a17.36,17.36,0,0,0,1.89-2.21,9.69,9.69,0,0,0,1.1-2,8.63,8.63,0,0,0,.51-2.21,27.12,27.12,0,0,0,.12-2.72q0-5-3.43-5a3.19,3.19,0,0,0-2.08.62,4,4,0,0,0-1.18,1.7,9.1,9.1,0,0,0-.54,2.5q-.12,1.42-.12,3H81.3v-1.53q0-5.62,2.6-8.63t8.18-3q5.29,0,7.84,2.84t2.55,8.12a20.88,20.88,0,0,1-.29,3.61,14.89,14.89,0,0,1-2.6,6.19,26.55,26.55,0,0,1-2.5,3l-3.92,4.2a16.5,16.5,0,0,0-2.45,3.21,10,10,0,0,0-1.13,2.7h13.08v6.36Z" fill="#fff"/>
    <path d="M116.15,117.42h7.3v25.49h3.33v6.36h-3.33v8.34H117v-8.34H104.63v-6.7Zm.73,10.22-6.76,15.27H117V127.64Z" fill="#fff"/>
    <path d="M143.88,116.29l-11.08,41.95h-5.34l10.93-41.95Z" fill="#fff"/>
    <path d="M166.18,124.46a55.6,55.6,0,0,0-3.85,7.55,82.63,82.63,0,0,0-3,8.29,86,86,0,0,0-2.11,8.66q-.83,4.4-1.27,8.66h-7.4Q149,154,149.76,150a76.15,76.15,0,0,1,2.08-8.15,78.34,78.34,0,0,1,3.16-8.34,63.72,63.72,0,0,1,4.41-8.23h-14.6v-7h21.37Z" fill="#fff"/>
  </g>
</svg>
