<svg width="75" height="75" viewBox="0 0 75 75" fill="none" xmlns="http://www.w3.org/2000/svg">
<path d="M37.037 74.0741C57.492 74.0741 74.0741 57.492 74.0741 37.037C74.0741 16.582 57.492 0 37.037 0C16.582 0 0 16.582 0 37.037C0 57.492 16.582 74.0741 37.037 74.0741Z" fill="#F6F2F3"/>
<path fill-rule="evenodd" clip-rule="evenodd" d="M57 42.2C57 42.8365 56.7471 43.447 56.2971 43.8971C55.847 44.3471 55.2365 44.6 54.6 44.6H25.4C24.7635 44.6 24.153 44.3471 23.7029 43.8971C23.2529 43.447 23 42.8365 23 42.2V21.4C23 20.7635 23.2529 20.153 23.7029 19.7029C24.153 19.2529 24.7635 19 25.4 19H54.6C55.2365 19 55.847 19.2529 56.2971 19.7029C56.7471 20.153 57 20.7635 57 21.4V42.2Z" fill="#C0392B"/>
<g filter="url(#filter0_d)">
<path fill-rule="evenodd" clip-rule="evenodd" d="M51 48.1999C51 49.4891 49.904 50.5999 48.6 50.5999H43.4C42.9548 50.5999 42.6 50.9015 42.6 51.3999V58.5999C42.6 58.8951 42.4988 58.9999 42.2332 58.9999C42.1404 58.9999 42.0448 58.9383 41.8872 58.8171L32.3004 51.3999C31.1004 50.5999 29.8488 50.5975 29.8488 50.5975L19.3608 50.5967C18.0568 50.5967 17 49.5515 17 48.2623V27.8123C17 26.5239 18.1584 25.3935 19.4 25.3999H48.6C50.0248 25.3999 51 26.5111 51 27.7999V48.1999Z" fill="#286491"/>
</g>
<path d="M31.5383 32.8876V35.1776H29.86V37.9776H31.5383V46.2992H34.9833V37.9784H37.2958C37.2958 37.9784 37.5125 36.6359 37.6175 35.1676H34.9975V33.2526C34.9975 32.9667 35.3725 32.5817 35.7442 32.5817H37.6225V29.6667H35.0692C31.4525 29.6667 31.5383 32.4692 31.5383 32.8876V32.8876Z" fill="white"/>
<defs>
<filter id="filter0_d" x="13" y="25.3999" width="42" height="41.6" filterUnits="userSpaceOnUse" color-interpolation-filters="sRGB">
<feFlood flood-opacity="0" result="BackgroundImageFix"/>
<feColorMatrix in="SourceAlpha" type="matrix" values="0 0 0 0 0 0 0 0 0 0 0 0 0 0 0 0 0 0 127 0"/>
<feOffset dy="4"/>
<feGaussianBlur stdDeviation="2"/>
<feColorMatrix type="matrix" values="0 0 0 0 0 0 0 0 0 0 0 0 0 0 0 0 0 0 0.25 0"/>
<feBlend mode="normal" in2="BackgroundImageFix" result="effect1_dropShadow"/>
<feBlend mode="normal" in="SourceGraphic" in2="effect1_dropShadow" result="shape"/>
</filter>
</defs>
</svg>
