<svg width="60" height="70" viewBox="0 0 60 70" fill="none" xmlns="http://www.w3.org/2000/svg">
<path d="M31.2938 14.2711H2.18604C1.25404 14.2711 0.498535 15.1525 0.498535 16.2399V67.6207C0.498535 68.708 1.25404 69.5894 2.18604 69.5894H31.2938C32.2258 69.5894 32.9813 68.708 32.9813 67.6207V16.2399C32.9813 15.1525 32.2258 14.2711 31.2938 14.2711Z" fill="#C8CACB"/>
<path d="M56.2827 5.0116H16.7966C16.1589 5.0116 15.642 5.7883 15.642 6.74628V67.8548C15.642 68.8129 16.1589 69.5895 16.7966 69.5895H56.2827C56.9204 69.5895 57.4374 68.8128 57.4374 67.8548V6.74642C57.4374 5.7883 56.9203 5.0116 56.2827 5.0116Z" fill="#A6AFB2"/>
<path d="M31.4949 55.3711H41.5844V69.5897H31.4949V55.3711Z" fill="#597B91"/>
<path d="M48.0644 62.7541H45.8172C45.5262 62.7541 45.2472 62.6193 45.0414 62.3792C44.8357 62.1392 44.7201 61.8136 44.7201 61.4742C44.7201 61.1347 44.8357 60.8091 45.0414 60.5691C45.2472 60.3291 45.5262 60.1942 45.8172 60.1942H48.0644C48.3526 60.1991 48.6275 60.3361 48.8299 60.5756C49.0322 60.8152 49.1456 61.1379 49.1456 61.4742C49.1456 61.8104 49.0322 62.1332 48.8299 62.3727C48.6275 62.6122 48.3526 62.7492 48.0644 62.7541Z" fill="#C8CACB"/>
<path d="M59.1892 5.85899V4.96362C59.1892 4.70255 59.1003 4.45217 58.9421 4.26756C58.7838 4.08296 58.5692 3.97925 58.3455 3.97925H14.7339C14.5101 3.97925 14.2955 4.08296 14.1373 4.26756C13.979 4.45217 13.8901 4.70255 13.8901 4.96362V5.85899C13.8901 6.12007 13.979 6.37045 14.1373 6.55505C14.2955 6.73966 14.5101 6.84337 14.7339 6.84337H58.3453C58.4562 6.84339 58.5659 6.81794 58.6683 6.76848C58.7706 6.71902 58.8637 6.64651 58.942 6.5551C59.0204 6.46369 59.0826 6.35517 59.125 6.23573C59.1674 6.11629 59.1892 5.98828 59.1892 5.85899Z" fill="#597B91"/>
<path d="M41.9415 58.4162C42.7396 58.4162 43.3102 57.5405 43.1306 56.6333C42.4378 53.1336 39.7498 50.5244 36.5395 50.5244C33.3291 50.5244 30.6412 53.1334 29.9484 56.6333C29.7687 57.5407 30.3393 58.4162 31.1375 58.4162H41.9415Z" fill="#FF473E"/>
<path d="M31.4949 58.4163H41.5844V61.425H31.4949V58.4163Z" fill="#466677"/>
<path d="M26.0676 25.1216H23.2579C23.0341 25.1216 22.8195 25.0179 22.6612 24.8333C22.503 24.6487 22.4141 24.3983 22.4141 24.1372V14.0164C22.4141 13.7553 22.503 13.5049 22.6612 13.3203C22.8195 13.1357 23.0341 13.032 23.2579 13.032H26.0676C26.2913 13.032 26.5059 13.1357 26.6642 13.3203C26.8224 13.5049 26.9113 13.7553 26.9113 14.0164V24.1372C26.9113 24.3983 26.8224 24.6487 26.6642 24.8333C26.5059 25.0179 26.2913 25.1216 26.0676 25.1216ZM34.7769 24.1372V14.0164C34.7769 13.7553 34.688 13.5049 34.5298 13.3203C34.3716 13.1357 34.157 13.032 33.9332 13.032H31.1235C30.8997 13.032 30.6851 13.1357 30.5269 13.3203C30.3686 13.5049 30.2797 13.7553 30.2797 14.0164V24.1372C30.2797 24.3983 30.3686 24.6487 30.5269 24.8333C30.6851 25.0179 30.8997 25.1216 31.1235 25.1216H33.9332C34.157 25.1216 34.3716 25.0179 34.5298 24.8333C34.688 24.6487 34.7769 24.3983 34.7769 24.1372ZM42.6424 24.1372V14.0164C42.6424 13.7553 42.5535 13.5049 42.3953 13.3203C42.2371 13.1357 42.0225 13.032 41.7987 13.032H38.989C38.7652 13.032 38.5506 13.1357 38.3924 13.3203C38.2341 13.5049 38.1453 13.7553 38.1453 14.0164V24.1372C38.1453 24.3983 38.2341 24.6487 38.3924 24.8333C38.5506 25.0179 38.7652 25.1216 38.989 25.1216H41.7987C42.0225 25.1216 42.2371 25.0179 42.3953 24.8333C42.5535 24.6487 42.6424 24.3983 42.6424 24.1372ZM50.5079 24.1372V14.0164C50.5079 13.7553 50.4191 13.5049 50.2608 13.3203C50.1026 13.1357 49.888 13.032 49.6642 13.032H46.8545C46.6307 13.032 46.4161 13.1357 46.2579 13.3203C46.0997 13.5049 46.0108 13.7553 46.0108 14.0164V24.1372C46.0108 24.3983 46.0997 24.6487 46.2579 24.8333C46.4161 25.0179 46.6307 25.1216 46.8545 25.1216H49.6642C49.888 25.1216 50.1026 25.0179 50.2608 24.8333C50.4191 24.6487 50.5079 24.3983 50.5079 24.1372ZM34.7769 36.3711V33.1221C34.7769 32.861 34.688 32.6107 34.5298 32.4261C34.3716 32.2415 34.157 32.1377 33.9332 32.1377H31.1235C30.8997 32.1377 30.6851 32.2415 30.5269 32.4261C30.3686 32.6107 30.2797 32.861 30.2797 33.1221V36.3711C30.2797 36.6322 30.3686 36.8826 30.5269 37.0672C30.6851 37.2518 30.8997 37.3555 31.1235 37.3555H33.9332C34.157 37.3555 34.3716 37.2518 34.5298 37.0672C34.688 36.8826 34.7769 36.6322 34.7769 36.3711ZM42.6424 36.3711V33.1221C42.6424 32.861 42.5535 32.6107 42.3953 32.4261C42.2371 32.2415 42.0225 32.1377 41.7987 32.1377H38.989C38.7652 32.1377 38.5506 32.2415 38.3924 32.4261C38.2341 32.6107 38.1453 32.861 38.1453 33.1221V36.3711C38.1453 36.6322 38.2341 36.8826 38.3924 37.0672C38.5506 37.2518 38.7652 37.3555 38.989 37.3555H41.7987C42.0225 37.3555 42.2371 37.2518 42.3953 37.0672C42.5535 36.8826 42.6424 36.6322 42.6424 36.3711ZM34.7769 46.4373V43.1883C34.7769 42.9272 34.688 42.6769 34.5298 42.4923C34.3716 42.3076 34.157 42.2039 33.9332 42.2039H31.1235C30.8997 42.2039 30.6851 42.3076 30.5269 42.4923C30.3686 42.6769 30.2797 42.9272 30.2797 43.1883V46.4373C30.2797 46.6984 30.3686 46.9487 30.5269 47.1334C30.6851 47.318 30.8997 47.4217 31.1235 47.4217H33.9332C34.157 47.4217 34.3716 47.318 34.5298 47.1334C34.688 46.9487 34.7769 46.6984 34.7769 46.4373ZM42.6424 46.4373V43.1883C42.6424 42.9272 42.5535 42.6769 42.3953 42.4923C42.2371 42.3076 42.0225 42.2039 41.7987 42.2039H38.989C38.7652 42.2039 38.5506 42.3076 38.3924 42.4923C38.2341 42.6769 38.1453 42.9272 38.1453 43.1883V46.4373C38.1453 46.6984 38.2341 46.9487 38.3924 47.1334C38.5506 47.318 38.7652 47.4217 38.989 47.4217H41.7987C42.0225 47.4217 42.2371 47.318 42.3953 47.1334C42.5535 46.9487 42.6424 46.6984 42.6424 46.4373ZM26.9113 36.3711V33.1221C26.9113 32.861 26.8224 32.6107 26.6642 32.4261C26.5059 32.2415 26.2913 32.1377 26.0676 32.1377H23.2579C23.0341 32.1377 22.8195 32.2415 22.6612 32.4261C22.503 32.6107 22.4141 32.861 22.4141 33.1221V36.3711C22.4141 36.6322 22.503 36.8826 22.6612 37.0672C22.8195 37.2518 23.0341 37.3555 23.2579 37.3555H26.0676C26.2913 37.3555 26.5059 37.2518 26.6642 37.0672C26.8224 36.8826 26.9113 36.6322 26.9113 36.3711ZM50.5079 36.3711V33.1221C50.5079 32.861 50.4191 32.6107 50.2608 32.4261C50.1026 32.2415 49.888 32.1377 49.6642 32.1377H46.8545C46.6307 32.1377 46.4161 32.2415 46.2579 32.4261C46.0997 32.6107 46.0108 32.861 46.0108 33.1221V36.3711C46.0108 36.6322 46.0997 36.8826 46.2579 37.0672C46.4161 37.2518 46.6307 37.3555 46.8545 37.3555H49.6642C49.888 37.3555 50.1026 37.2518 50.2608 37.0672C50.4191 36.8826 50.5079 36.6322 50.5079 36.3711ZM26.9113 46.4373V43.1883C26.9113 42.9272 26.8224 42.6769 26.6642 42.4923C26.5059 42.3076 26.2913 42.2039 26.0676 42.2039H23.2579C23.0341 42.2039 22.8195 42.3076 22.6612 42.4923C22.503 42.6769 22.4141 42.9272 22.4141 43.1883V46.4373C22.4141 46.6984 22.503 46.9487 22.6612 47.1334C22.8195 47.318 23.0341 47.4217 23.2579 47.4217H26.0676C26.2913 47.4217 26.5059 47.318 26.6642 47.1334C26.8224 46.9487 26.9113 46.6984 26.9113 46.4373ZM50.5079 46.4373V43.1883C50.5079 42.9272 50.4191 42.6769 50.2608 42.4923C50.1026 42.3076 49.888 42.2039 49.6642 42.2039H46.8545C46.6307 42.2039 46.4161 42.3076 46.2579 42.4923C46.0997 42.6769 46.0108 42.9272 46.0108 43.1883V46.4373C46.0108 46.6984 46.0997 46.9487 46.2579 47.1334C46.4161 47.318 46.6307 47.4217 46.8545 47.4217H49.6642C49.888 47.4217 50.1026 47.318 50.2608 47.1334C50.4191 46.9487 50.5079 46.6984 50.5079 46.4373ZM10.354 31.5384V24.1028C10.354 23.8417 10.2651 23.5913 10.1069 23.4067C9.94864 23.2221 9.73403 23.1184 9.51025 23.1184H6.70056C6.47679 23.1184 6.26217 23.2221 6.10394 23.4067C5.94571 23.5913 5.85681 23.8417 5.85681 24.1028V31.5384C5.85681 31.7994 5.94571 32.0498 6.10394 32.2344C6.26217 32.419 6.47679 32.5227 6.70056 32.5227H9.51025C9.73403 32.5227 9.94864 32.419 10.1069 32.2344C10.2651 32.0498 10.354 31.7994 10.354 31.5384ZM10.354 46.991V39.5554C10.354 39.2943 10.2651 39.044 10.1069 38.8594C9.94864 38.6748 9.73403 38.571 9.51025 38.571H6.70056C6.47679 38.571 6.26217 38.6748 6.10394 38.8594C5.94571 39.044 5.85681 39.2943 5.85681 39.5554V46.991C5.85681 47.2521 5.94571 47.5025 6.10394 47.6871C6.26217 47.8717 6.47679 47.9754 6.70056 47.9754H9.51025C9.73403 47.9754 9.94864 47.8717 10.1069 47.6871C10.2651 47.5025 10.354 47.2521 10.354 46.991ZM10.354 62.4436V55.0081C10.354 54.747 10.2651 54.4966 10.1069 54.312C9.94864 54.1274 9.73403 54.0237 9.51025 54.0237H6.70056C6.47679 54.0237 6.26217 54.1274 6.10394 54.312C5.94571 54.4966 5.85681 54.747 5.85681 55.0081V62.4436C5.85681 62.7047 5.94571 62.9551 6.10394 63.1397C6.26217 63.3243 6.47679 63.428 6.70056 63.428H9.51025C9.73403 63.428 9.94864 63.3243 10.1069 63.1397C10.2651 62.9551 10.354 62.7047 10.354 62.4436Z" fill="#2B3B47"/>
<path d="M10.3655 32.5227H5.84545C5.66668 32.5227 5.49523 32.4399 5.36881 32.2924C5.2424 32.1449 5.17139 31.9449 5.17139 31.7363V31.3062C5.17139 31.0976 5.2424 30.8976 5.36881 30.7501C5.49523 30.6026 5.66668 30.5198 5.84545 30.5198H10.3655C10.5443 30.5198 10.7157 30.6026 10.8421 30.7501C10.9685 30.8976 11.0396 31.0976 11.0396 31.3062V31.7363C11.0396 31.9449 10.9685 32.1449 10.8421 32.2924C10.7157 32.4399 10.5443 32.5227 10.3655 32.5227ZM11.0396 47.1888V46.7587C11.0396 46.5501 10.9685 46.3501 10.8421 46.2026C10.7157 46.0551 10.5443 45.9723 10.3655 45.9723H5.84545C5.66668 45.9723 5.49523 46.0551 5.36881 46.2026C5.2424 46.3501 5.17139 46.5501 5.17139 46.7587V47.1888C5.17139 47.3974 5.2424 47.5974 5.36881 47.7449C5.49522 47.8924 5.66667 47.9753 5.84545 47.9753H10.3655C10.5443 47.9753 10.7157 47.8924 10.8421 47.7449C10.9685 47.5974 11.0396 47.3974 11.0396 47.1888ZM11.0396 62.6414V62.2113C11.0396 62.0028 10.9685 61.8027 10.8421 61.6552C10.7157 61.5078 10.5443 61.4249 10.3655 61.4249H5.84545C5.66668 61.4249 5.49523 61.5078 5.36881 61.6552C5.2424 61.8027 5.17139 62.0028 5.17139 62.2113V62.6414C5.17139 62.85 5.2424 63.0501 5.36881 63.1976C5.49522 63.3451 5.66667 63.4279 5.84545 63.428H10.3655C10.5443 63.4279 10.7157 63.3451 10.8421 63.1976C10.9685 63.0501 11.0396 62.85 11.0396 62.6414Z" fill="#A6AFB2"/>
<path d="M26.9905 25.1217H22.4704C22.3819 25.1217 22.2943 25.1014 22.2125 25.0618C22.1307 25.0223 22.0564 24.9644 21.9938 24.8914C21.9312 24.8183 21.8816 24.7317 21.8477 24.6362C21.8138 24.5408 21.7964 24.4386 21.7964 24.3353V23.9052C21.7964 23.8019 21.8138 23.6996 21.8477 23.6042C21.8816 23.5088 21.9312 23.4221 21.9938 23.3491C22.0564 23.2761 22.1307 23.2182 22.2125 23.1786C22.2943 23.1391 22.3819 23.1188 22.4704 23.1188H26.9905C27.079 23.1188 27.1667 23.1391 27.2484 23.1786C27.3302 23.2182 27.4045 23.2761 27.4671 23.3491C27.5297 23.4221 27.5794 23.5088 27.6132 23.6042C27.6471 23.6996 27.6645 23.8019 27.6645 23.9052V24.3353C27.6645 24.4386 27.6471 24.5408 27.6132 24.6362C27.5794 24.7317 27.5297 24.8183 27.4671 24.8914C27.4045 24.9644 27.3302 25.0223 27.2484 25.0618C27.1667 25.1014 27.079 25.1217 26.9905 25.1217ZM35.4623 24.3353V23.9052C35.4623 23.8019 35.4449 23.6996 35.411 23.6042C35.3771 23.5088 35.3275 23.4221 35.2649 23.3491C35.2023 23.2761 35.128 23.2182 35.0462 23.1786C34.9644 23.1391 34.8768 23.1188 34.7883 23.1188H30.2682C30.1797 23.1188 30.092 23.1391 30.0103 23.1786C29.9285 23.2182 29.8542 23.2761 29.7916 23.3491C29.729 23.4221 29.6793 23.5088 29.6455 23.6042C29.6116 23.6996 29.5942 23.8019 29.5942 23.9052V24.3353C29.5942 24.4386 29.6116 24.5408 29.6455 24.6362C29.6793 24.7317 29.729 24.8183 29.7916 24.8914C29.8542 24.9644 29.9285 25.0223 30.0103 25.0618C30.092 25.1014 30.1797 25.1217 30.2682 25.1217H34.7883C34.8768 25.1217 34.9644 25.1014 35.0462 25.0618C35.128 25.0223 35.2023 24.9644 35.2649 24.8914C35.3275 24.8183 35.3771 24.7317 35.411 24.6362C35.4449 24.5408 35.4623 24.4386 35.4623 24.3353ZM43.2601 24.3353V23.9052C43.2601 23.6966 43.1891 23.4966 43.0627 23.3491C42.9363 23.2016 42.7648 23.1188 42.586 23.1188H38.066C37.8872 23.1188 37.7157 23.2016 37.5893 23.3491C37.4629 23.4966 37.3918 23.6966 37.3918 23.9052V24.3353C37.3918 24.4386 37.4093 24.5409 37.4431 24.6363C37.477 24.7317 37.5267 24.8184 37.5893 24.8914C37.6519 24.9644 37.7262 25.0224 37.808 25.0619C37.8898 25.1014 37.9775 25.1217 38.066 25.1217H42.586C42.7648 25.1217 42.9363 25.0389 43.0627 24.8914C43.1891 24.7439 43.2601 24.5439 43.2601 24.3353ZM51.0579 24.3353V23.9052C51.0579 23.8019 51.0404 23.6996 51.0065 23.6042C50.9727 23.5088 50.923 23.4221 50.8604 23.3491C50.7978 23.276 50.7235 23.2181 50.6417 23.1786C50.5599 23.1391 50.4722 23.1188 50.3837 23.1188H45.8636C45.7751 23.1188 45.6875 23.1391 45.6057 23.1786C45.5239 23.2182 45.4496 23.2761 45.387 23.3491C45.3244 23.4221 45.2748 23.5088 45.2409 23.6042C45.207 23.6996 45.1896 23.8019 45.1896 23.9052V24.3353C45.1896 24.4386 45.207 24.5408 45.2409 24.6362C45.2748 24.7317 45.3244 24.8183 45.387 24.8914C45.4496 24.9644 45.5239 25.0223 45.6057 25.0618C45.6875 25.1014 45.7751 25.1217 45.8636 25.1217H50.3837C50.4722 25.1217 50.5599 25.1014 50.6417 25.0619C50.7235 25.0224 50.7978 24.9644 50.8604 24.8914C50.923 24.8184 50.9727 24.7317 51.0065 24.6363C51.0404 24.5409 51.0579 24.4386 51.0579 24.3353Z" fill="#899396"/>
</svg>
