<?xml version="1.0" ?><svg viewBox="0 0 100 100" xmlns="http://www.w3.org/2000/svg"><title/><circle cx="50" cy="50" fill="#e6e6e6" r="49.5"/><rect fill="#2b687f" height="12.83333" width="4.5" x="47.75" y="71.33334"/><rect fill="#4d4d4d" height="44.33333" rx="3.20833" ry="3.20833" width="62.42288" x="18.78854" y="28.85393"/><rect fill="#fff" height="48.85391" rx="3.20833" ry="3.20833" width="62.42288" x="18.78858" y="20.33336"/><path d="M29.89586,53.91668h5.33333A1.33333,1.33333,0,0,1,36.56252,55.25v9a0,0,0,0,1,0,0h-8a0,0,0,0,1,0,0v-9A1.33333,1.33333,0,0,1,29.89586,53.91668Z" fill="#ffab80"/><path d="M41.52086,46.552h5.33333a1.33333,1.33333,0,0,1,1.33333,1.33333V64.25a0,0,0,0,1,0,0h-8a0,0,0,0,1,0,0V47.8853A1.33333,1.33333,0,0,1,41.52086,46.552Z" fill="#ffab80"/><path d="M53.14586,40.66668h5.33333A1.33333,1.33333,0,0,1,59.81252,42V64.25a0,0,0,0,1,0,0h-8a0,0,0,0,1,0,0V42A1.33333,1.33333,0,0,1,53.14586,40.66668Z" fill="#ffab80"/><path d="M64.77086,32.75h5.33333a1.33333,1.33333,0,0,1,1.33333,1.33333V64.25a0,0,0,0,1,0,0h-8a0,0,0,0,1,0,0V34.08334A1.33333,1.33333,0,0,1,64.77086,32.75Z" fill="#ffab80"/><path d="M69.26514,24.19122l-41.064,26.09827a2.141,2.141,0,0,1-2.3501-3.57892L66.11957,19.401a2.86568,2.86568,0,1,1,3.21692,4.74341C69.31647,24.158,69.28534,24.17822,69.26514,24.19122Z" fill="#2b687f"/><polygon fill="#2b687f" points="62.707 17.554 75.25 16.833 69.604 28.056 62.707 17.554"/><path d="M68.37192,85.16666a1.00122,1.00122,0,0,0,.501-1.86965c-3.31116-1.84868-10.511-3.13035-18.873-3.13035S34.4382,81.44833,31.12706,83.297a1.00122,1.00122,0,0,0,.501,1.86965Z" fill="#10556b"/></svg>